<svg xmlns="http://www.w3.org/2000/svg"
     viewBox="0 0 512 512"
     width="100%"
     height="100%"
     preserveAspectRatio="xMidYMid meet">
  <g transform="translate(0,512) scale(0.1,-0.1)" fill="#FFFFFF" stroke="none">
    <path d="M2409 4437 c-71 -89 -77 -143 -21 -200 36 -38 37 -39 35 -112 -5
-225 -115 -394 -255 -395 -53 0 -139 35 -192 78 -63 51 -139 150 -177 228 -28
60 -30 70 -20 104 20 66 15 84 -37 132 -46 43 -87 66 -99 55 -2 -3 -7 -33 -10
-66 -7 -78 8 -116 57 -141 21 -11 48 -31 59 -46 52 -66 79 -253 47 -327 -29
-68 -107 -117 -186 -117 -93 0 -324 159 -362 249 -20 50 -46 71 -117 96 -46
16 -47 16 -25 -28 24 -47 73 -95 105 -102 35 -8 120 -97 152 -161 49 -97 107
-330 107 -430 l0 -33 43 24 c77 43 271 81 537 105 150 13 623 13 787 -1 259
-21 507 -72 553 -114 17 -15 18 -14 25 37 22 182 64 334 118 428 38 66 109
138 145 146 36 9 51 21 84 73 44 70 36 76 -50 36 -43 -20 -56 -32 -71 -67 -43
-101 -265 -257 -366 -258 -97 0 -176 62 -195 155 -14 67 -2 155 33 242 19 47
29 59 74 85 44 25 54 36 63 70 11 40 4 144 -9 153 -14 8 -109 -64 -131 -100
-19 -30 -20 -40 -11 -67 19 -53 12 -90 -30 -166 -83 -149 -212 -255 -328 -269
-71 -8 -147 29 -191 92 -44 63 -78 176 -86 278 l-7 83 42 47 c24 29 41 58 41
73 0 41 -72 164 -97 164 -4 0 -20 -15 -34 -33z"/>
<path d="M2185 3293 c-198 -15 -305 -27 -397 -44 -113 -20 -263 -64 -273 -78
-6 -11 123 -55 220 -75 208 -43 309 -51 710 -51 352 0 405 3 540 23 147 22
299 57 366 85 l34 14 -40 17 c-109 47 -340 88 -595 106 -133 9 -469 11 -565 3z"/>
<path d="M1790 2885 l0 -45 90 0 90 0 0 -245 0 -245 180 0 180 0 0 245 0 244
88 3 87 3 3 43 3 42 -360 0 -361 0 0 -45z"/>
<path d="M2450 2706 c0 -26 0 -26 85 -26 l85 0 0 -165 0 -165 125 0 125 0 0
166 0 166 88 -7 c199 -16 341 -78 480 -209 29 -27 62 -64 73 -83 l21 -33 144
0 145 0 -33 47 c-78 111 -221 227 -339 274 -131 53 -128 52 -576 56 l-423 4 0
-25z"/>
<path d="M1390 2055 l0 -165 75 0 c60 0 75 3 75 15 0 12 -13 15 -55 15 l-55 0
0 150 c0 143 -1 150 -20 150 -19 0 -20 -7 -20 -165z"/>
<path d="M2166 2198 c-53 -31 -80 -79 -80 -143 0 -96 65 -165 157 -165 166 0
229 203 94 304 -41 30 -123 32 -171 4z m138 -30 c79 -35 85 -176 10 -225 -18
-11 -45 -18 -73 -17 -38 1 -49 6 -78 37 -29 33 -33 43 -33 93 0 50 3 59 34 90
27 27 42 34 75 34 22 0 51 -5 65 -12z"/>
<path d="M2980 2056 c0 -159 1 -166 20 -166 18 0 20 7 20 65 0 64 0 65 28 65
23 0 32 -10 62 -63 28 -50 41 -63 63 -65 l28 -3 -42 67 c-29 48 -38 69 -28 73
7 2 23 15 36 28 20 19 24 32 21 70 -4 65 -35 86 -134 91 l-74 4 0 -166z m152
107 c22 -20 23 -61 1 -85 -11 -13 -30 -18 -65 -18 l-48 0 0 60 0 60 47 0 c29
0 53 -6 65 -17z"/>
<path d="M3770 2056 l0 -166 66 0 c123 0 181 34 204 121 20 73 -12 154 -71
185 -19 9 -67 19 -116 22 l-83 5 0 -167z m201 86 c24 -27 29 -41 29 -83 0 -92
-39 -129 -135 -129 l-55 0 0 126 0 126 66 -4 c60 -4 70 -7 95 -36z"/>
<path d="M1702 2063 c3 -15 17 -18 96 -21 87 -3 92 -2 92 18 0 19 -6 20 -96
20 -86 0 -95 -2 -92 -17z"/>
<path d="M2582 2063 c3 -15 17 -18 96 -21 87 -3 92 -2 92 18 0 19 -6 20 -96
20 -86 0 -95 -2 -92 -17z"/>
<path d="M3380 2060 c0 -20 5 -21 92 -18 79 3 93 6 96 21 3 15 -6 17 -92 17
-90 0 -96 -1 -96 -20z"/>
<path d="M1970 1190 l0 -440 -115 0 -115 0 0 -45 0 -45 970 0 970 0 0 260 0
260 -68 0 -67 0 -23 -65 c-48 -131 -152 -253 -260 -303 -118 -54 -130 -55
-544 -59 l-388 -4 0 440 0 441 -180 0 -180 0 0 -440z"/>
<path d="M2620 1415 l0 -215 -85 0 -85 0 0 -31 0 -31 408 4 c376 4 413 6 484
26 178 49 339 160 443 306 39 55 85 137 85 151 0 3 -62 5 -137 5 l-138 0 -27
-53 c-112 -213 -346 -360 -595 -374 l-103 -6 0 217 0 216 -125 0 -125 0 0
-215z"/>
  </g>
</svg>
